<?xml version="1.0" encoding="UTF-8" standalone="no"?>
<svg width="18px" height="18px" viewBox="0 0 18 18" version="1.1" xmlns="http://www.w3.org/2000/svg" xmlns:xlink="http://www.w3.org/1999/xlink" xmlns:sketch="http://www.bohemiancoding.com/sketch/ns">
    <!-- Generator: Sketch 3.4.2 (15855) - http://www.bohemiancoding.com/sketch -->
    <title>Group</title>
    <desc>Created with Sketch.</desc>
    <defs></defs>
    <g id="Desktop" stroke="none" stroke-width="1" fill="none" fill-rule="evenodd" sketch:type="MSPage">
        <g id="Checkout:-Paypal-Receipt" sketch:type="MSArtboardGroup" transform="translate(-351.000000, -940.000000)" fill="#A5A5A5">
            <g id="Group-+-PRINT-RECEIPT-Copy-2" sketch:type="MSLayerGroup" transform="translate(351.000000, 940.000000)">
                <g id="Group" sketch:type="MSShapeGroup">
                    <path d="M5.625,14.0625 L11.25,14.0625 L11.25,15.1875 L5.625,15.1875 L5.625,14.0625 L5.625,14.0625 Z" id="Shape"></path>
                    <path d="M4.5,1.125 L13.5,1.125 L13.5,3.375 L14.625,3.375 L14.625,1.125 C14.625,0.5045625 14.121,0 13.5,0 L4.5,0 C3.879,0 3.375,0.504 3.375,1.125 L3.375,3.375 L4.5,3.375 L4.5,1.125 L4.5,1.125 Z" id="Shape"></path>
                    <path d="M5.625,11.8125 L12.375,11.8125 L12.375,12.9375 L5.625,12.9375 L5.625,11.8125 L5.625,11.8125 Z" id="Shape"></path>
                    <path d="M16.875,4.5 L1.125,4.5 C0.504,4.5 0,5.004 0,5.625 L0,12.375 C0,12.9965625 0.504,13.5 1.125,13.5 L3.375,13.5 L3.375,16.875 C3.375,17.4965625 3.879,18 4.5,18 L13.5,18 C14.121,18 14.625,17.4965625 14.625,16.875 L14.625,13.5 L16.875,13.5 C17.496,13.5 18,12.9965625 18,12.375 L18,5.625 C18,5.004 17.4954375,4.5 16.875,4.5 L16.875,4.5 Z M13.5,16.875 L4.5,16.875 L4.5,10.125 L13.5,10.125 L13.5,16.875 L13.5,16.875 Z M15.75,7.875 C15.129,7.875 14.625,7.3715625 14.625,6.75 C14.625,6.129 15.129,5.625 15.75,5.625 C16.371,5.625 16.875,6.129 16.875,6.75 C16.875,7.3715625 16.3704375,7.875 15.75,7.875 L15.75,7.875 Z" id="Shape"></path>
                </g>
            </g>
        </g>
    </g>
</svg>